<svg width="48" height="48" viewBox="0 0 48 48" fill="none" xmlns="http://www.w3.org/2000/svg">
<path d="M10.119 15.1668C10.119 12.379 12.3789 10.1191 15.1666 10.1191H32.8333C35.621 10.1191 37.8809 12.379 37.8809 15.1668V32.8334C37.8809 35.6212 35.621 37.881 32.8333 37.881H15.1666C12.3789 37.881 10.119 35.6212 10.119 32.8334V15.1668Z" fill="#CDDFCC"/>
<path d="M32.472 7.52941H16.0014C15.3517 7.52941 14.825 7.00269 14.825 6.35294V5.17647C14.825 4.52672 15.3517 4 16.0014 4H32.472C33.1218 4 33.6485 4.52672 33.6485 5.17647V6.35294C33.6485 7.00269 33.1218 7.52941 32.472 7.52941Z" fill="#52A350"/>
<path d="M32.472 44H16.0014C15.3517 44 14.825 43.4733 14.825 42.8235V41.6471C14.825 40.9973 15.3517 40.4706 16.0014 40.4706H32.472C33.1218 40.4706 33.6485 40.9973 33.6485 41.6471V42.8235C33.6485 43.4733 33.1218 44 32.472 44Z" fill="#52A350"/>
<path fill-rule="evenodd" clip-rule="evenodd" d="M32.8333 12.6429H15.1666C13.7728 12.6429 12.6428 13.7728 12.6428 15.1667V32.8333C12.6428 34.2272 13.7728 35.3571 15.1666 35.3571H32.8333C34.2272 35.3571 35.3571 34.2272 35.3571 32.8333V15.1667C35.3571 13.7728 34.2272 12.6429 32.8333 12.6429ZM15.1666 10.1191C12.3789 10.1191 10.119 12.3789 10.119 15.1667V32.8333C10.119 35.6211 12.3789 37.881 15.1666 37.881H32.8333C35.621 37.881 37.8809 35.6211 37.8809 32.8333V15.1667C37.8809 12.3789 35.621 10.1191 32.8333 10.1191H15.1666Z" fill="#52A350"/>
<path fill-rule="evenodd" clip-rule="evenodd" d="M31.289 21.2421C31.6655 21.6125 31.6655 22.2129 31.289 22.5833L23.7176 30.0317C23.3411 30.4021 22.7307 30.4021 22.3542 30.0317L16.7109 24.4801C16.3344 24.1098 16.3344 23.5093 16.7109 23.1389L18.756 21.127C19.1325 20.7566 19.7429 20.7566 20.1195 21.127L23.0359 23.9961L27.8805 19.2302C28.257 18.8598 28.8674 18.8598 29.2439 19.2302L31.289 21.2421Z" fill="#52A350"/>
<path fill-rule="evenodd" clip-rule="evenodd" d="M31.289 21.2421C31.6655 21.6125 31.6655 22.2129 31.289 22.5833L23.7176 30.0317C23.3411 30.4021 22.7307 30.4021 22.3542 30.0317L16.7109 24.4801C16.3344 24.1098 16.3344 23.5093 16.7109 23.1389L18.756 21.127C19.1325 20.7566 19.7429 20.7566 20.1195 21.127L23.0359 23.9961L27.8805 19.2302C28.257 18.8598 28.8674 18.8598 29.2439 19.2302L31.289 21.2421Z" fill="#52A350"/>
</svg>
